<?xml version="1.0" standalone="no"?>
<!DOCTYPE svg PUBLIC "-//W3C//DTD SVG 20010904//EN"
 "http://www.w3.org/TR/2001/REC-SVG-20010904/DTD/svg10.dtd">
<svg version="1.0" xmlns="http://www.w3.org/2000/svg"
 width="1350.000000pt" height="331.000000pt" viewBox="0 0 1350.000000 331.000000"
 preserveAspectRatio="xMidYMid meet">
<metadata>
Created by potrace 1.16, written by Peter Selinger 2001-2019
</metadata>
<g transform="translate(0.000000,331.000000) scale(0.100000,-0.100000)"
fill="#000000" stroke="none">
<path d="M1272 3285 c-15 -19 -22 -49 -27 -110 l-7 -85 -37 -5 c-20 -3 -85
-16 -146 -28 -126 -27 -105 -33 -240 68 -102 77 -137 92 -173 76 -45 -21 -287
-194 -306 -219 -25 -33 -17 -54 61 -160 107 -146 102 -129 60 -200 -20 -34
-48 -97 -63 -139 -15 -43 -31 -83 -36 -90 -6 -8 -37 -10 -101 -6 -114 7 -198
-9 -232 -43 l-25 -25 0 -234 c0 -196 3 -240 16 -269 25 -52 111 -91 254 -116
100 -18 112 -27 139 -110 12 -39 52 -130 87 -201 71 -142 72 -148 24 -209 -74
-95 -130 -193 -130 -229 0 -49 18 -72 203 -264 83 -88 158 -169 166 -182 19
-30 81 -65 116 -65 36 0 53 10 182 107 l111 85 98 -58 c89 -52 244 -123 270
-124 25 0 44 -42 79 -175 44 -168 66 -218 109 -244 29 -18 53 -20 266 -23 207
-3 239 -1 265 14 17 10 26 17 21 18 -5 0 -3 7 4 15 9 11 12 56 12 158 -2 172
3 208 32 215 28 7 148 70 213 112 l53 33 92 -70 c134 -102 190 -128 224 -105
18 13 70 94 138 218 70 129 80 169 52 222 -8 15 -53 76 -100 137 -48 60 -85
114 -82 121 11 30 28 176 22 199 -9 37 -19 31 -39 -24 -26 -75 -107 -190 -181
-258 -74 -68 -190 -131 -296 -160 -94 -25 -328 -25 -428 1 -41 10 -70 22 -65
26 4 4 35 15 68 25 125 35 236 102 323 195 72 76 152 263 152 353 0 26 -3 28
-27 23 -16 -3 -108 -8 -205 -12 -156 -6 -178 -9 -178 -23 0 -40 -33 -138 -57
-169 -62 -82 -221 -110 -326 -58 -29 14 -68 40 -86 58 -31 30 -101 157 -101
183 0 7 203 57 477 118 262 59 478 109 480 110 2 2 -12 58 -31 124 -94 326
-242 511 -471 589 -225 76 -519 18 -691 -136 -132 -118 -201 -253 -226 -444
l-11 -91 -15 34 c-45 110 -79 353 -68 486 9 112 30 185 83 295 38 79 59 108
127 175 169 166 345 226 603 205 65 -6 133 -13 152 -17 46 -8 38 15 -15 42
-51 27 -59 37 -89 125 -32 95 -56 135 -94 154 -40 21 -319 86 -369 86 -31 0
-45 -6 -60 -25z m561 -1208 c73 -43 130 -122 150 -208 l7 -26 -273 -60 c-149
-34 -275 -59 -279 -56 -5 2 -8 41 -8 86 1 149 66 244 200 288 49 16 155 4 203
-24z"/>
<path d="M5062 2430 c-44 -27 -52 -54 -52 -175 0 -108 -3 -115 -49 -115 -10 0
-30 -9 -45 -21 -20 -16 -26 -29 -26 -58 0 -46 29 -76 82 -86 l37 -7 3 -267 c3
-255 4 -268 26 -313 19 -38 33 -52 78 -74 50 -24 61 -26 156 -22 144 6 197 35
198 109 0 25 -7 42 -25 59 -22 21 -30 22 -96 16 -113 -12 -109 -20 -109 259
l0 233 57 7 c43 5 63 14 85 35 35 36 35 61 1 100 -23 26 -38 32 -85 37 l-58 6
0 86 c0 108 -12 153 -51 185 -37 32 -82 34 -127 6z"/>
<path d="M9222 2430 c-44 -27 -52 -54 -52 -175 0 -108 -3 -115 -49 -115 -10 0
-30 -9 -45 -21 -20 -16 -26 -29 -26 -58 0 -46 29 -76 82 -86 l37 -7 3 -267 c3
-255 4 -268 26 -313 19 -38 33 -52 78 -74 50 -24 61 -26 156 -22 144 6 197 35
198 109 0 25 -7 42 -25 59 -22 21 -30 22 -96 16 -113 -12 -109 -20 -109 259
l0 233 57 7 c43 5 63 14 85 35 35 36 35 61 1 100 -23 26 -38 32 -85 37 l-58 6
0 86 c0 108 -12 153 -51 185 -37 32 -82 34 -127 6z"/>
<path d="M10628 2421 l-33 -29 -3 -119 c-4 -122 -8 -133 -49 -133 -12 0 -34
-11 -49 -23 -55 -48 -22 -129 57 -142 l38 -7 3 -271 c3 -263 4 -273 26 -312
13 -22 40 -51 60 -65 34 -23 46 -25 157 -25 124 0 170 12 202 54 19 25 15 76
-9 106 -21 27 -22 27 -100 20 -70 -6 -81 -4 -94 12 -10 14 -13 68 -14 249 l0
232 55 7 c70 8 108 38 108 83 0 54 -55 92 -135 92 l-28 0 0 78 c-1 118 -13
162 -51 194 -46 39 -97 38 -141 -1z"/>
<path d="M3349 2159 c-159 -21 -279 -119 -279 -230 0 -51 42 -89 98 -89 45 0
44 0 104 80 40 53 70 70 143 77 81 9 138 -11 159 -53 9 -19 16 -47 16 -63 0
-26 -5 -30 -57 -44 -32 -9 -114 -27 -183 -42 -146 -30 -170 -38 -228 -79 -151
-106 -106 -346 79 -411 53 -19 171 -19 235 0 27 8 79 32 114 54 l65 39 48 -54
c44 -48 53 -54 89 -54 32 0 47 7 74 34 39 39 40 46 14 145 -17 62 -20 107 -20
260 0 140 -4 199 -16 242 -32 114 -113 172 -267 189 -92 11 -95 11 -188 -1z
m239 -528 c-6 -86 -29 -126 -88 -156 -118 -59 -224 -31 -237 62 -4 34 -1 45
23 72 25 27 44 34 144 57 63 14 117 27 119 30 2 2 13 4 24 4 18 0 19 -5 15
-69z"/>
<path d="M7758 2160 c-160 -20 -288 -126 -288 -239 0 -38 52 -81 97 -81 45 0
51 3 89 55 62 85 98 105 189 105 94 0 134 -30 149 -111 l6 -36 -63 -16 c-35
-9 -119 -28 -188 -42 -157 -34 -210 -56 -259 -112 -112 -127 -52 -318 117
-379 21 -7 73 -13 115 -14 90 0 180 29 254 82 44 31 46 32 56 13 6 -11 28 -37
48 -57 31 -31 45 -38 78 -38 31 0 46 7 71 32 36 37 40 72 14 139 -13 35 -17
86 -18 250 -3 266 -10 295 -83 372 -62 64 -224 97 -384 77z m233 -555 c-17
-93 -57 -133 -156 -155 -113 -25 -200 50 -158 137 20 42 47 57 148 77 44 9
100 23 125 30 44 13 45 13 48 -10 2 -12 -1 -48 -7 -79z"/>
<path d="M13020 2159 c-86 -14 -172 -62 -230 -126 -164 -185 -135 -534 55
-665 80 -56 128 -70 247 -76 89 -4 117 -1 176 17 184 56 291 234 169 280 -36
14 -63 3 -131 -57 -76 -67 -111 -82 -188 -82 -88 0 -134 27 -170 99 -16 30
-28 67 -28 82 l0 27 243 4 c316 5 337 14 337 147 0 109 -52 207 -149 279 -85
64 -212 91 -331 71z m141 -170 c49 -15 83 -52 103 -112 27 -82 38 -77 -165
-77 l-181 0 7 37 c24 129 115 188 236 152z"/>
<path d="M4048 2131 l-33 -29 0 -304 0 -303 32 -65 c52 -104 136 -146 273
-138 83 5 152 35 209 90 l31 30 6 -31 c4 -18 19 -45 34 -61 23 -25 36 -30 73
-30 39 0 49 5 76 35 l31 36 0 355 c0 381 -1 393 -52 428 -30 21 -98 20 -123
-2 -50 -41 -50 -42 -55 -301 -5 -225 -7 -249 -26 -281 -61 -105 -209 -119
-258 -25 -19 37 -21 62 -26 295 -3 178 -9 262 -18 277 -34 61 -120 72 -174 24z"/>
<path d="M5779 2146 c-202 -54 -326 -264 -291 -494 23 -147 104 -262 230 -324
56 -28 76 -32 170 -36 126 -5 201 15 288 76 177 123 219 430 87 624 -40 57
-48 65 -108 105 -89 59 -259 81 -376 49z m210 -177 c86 -36 116 -100 116 -244
0 -81 -4 -109 -21 -146 -29 -63 -69 -96 -129 -110 -158 -35 -270 117 -235 320
19 108 55 161 127 187 53 19 87 17 142 -7z"/>
<path d="M6525 2138 c-14 -13 -30 -41 -35 -63 -13 -55 -13 -938 0 -1005 6 -30
17 -61 26 -71 24 -26 86 -34 123 -15 55 29 61 55 61 254 l0 179 43 -42 c70
-67 107 -80 222 -80 115 0 154 15 235 91 128 120 167 384 84 561 -39 81 -124
164 -197 191 -62 24 -158 29 -216 12 -45 -13 -147 -80 -160 -105 -9 -18 -10
-18 -10 7 -3 90 -110 143 -176 86z m430 -159 c79 -21 127 -95 141 -214 8 -62
-10 -156 -39 -208 -56 -100 -198 -116 -279 -30 -69 72 -85 248 -32 358 20 43
71 85 117 95 45 11 48 11 92 -1z"/>
<path d="M8463 2138 c-42 -47 -43 -55 -43 -413 0 -371 2 -384 52 -419 48 -34
132 -10 159 43 9 18 15 96 19 241 7 237 17 294 61 340 25 25 37 30 77 30 26 0
67 -6 93 -14 36 -11 51 -11 75 -1 90 38 77 138 -25 192 -88 46 -224 22 -264
-47 -21 -34 -32 -32 -41 6 -11 41 -45 63 -97 64 -35 0 -50 -5 -66 -22z"/>
<path d="M9855 2144 c-201 -64 -262 -275 -113 -394 52 -42 102 -63 238 -100
141 -38 171 -55 183 -99 17 -68 -57 -118 -161 -108 -70 7 -108 31 -160 100
-24 31 -52 62 -63 68 -28 15 -73 2 -104 -29 -24 -23 -26 -33 -23 -74 9 -85 82
-159 195 -197 86 -29 244 -29 335 -1 120 37 192 114 205 220 9 77 -3 117 -53
170 -53 57 -121 89 -270 129 -135 36 -154 43 -178 70 -42 47 22 111 110 111
60 0 110 -25 142 -69 32 -45 73 -71 112 -71 69 0 108 47 96 116 -10 49 -81
117 -154 145 -75 30 -261 37 -337 13z"/>
<path d="M11345 2143 c-48 -17 -122 -58 -156 -85 -28 -24 -81 -109 -100 -163
-26 -74 -34 -178 -20 -260 24 -138 109 -251 231 -309 62 -30 71 -31 191 -31
124 0 126 0 200 37 85 42 121 74 166 149 91 152 83 369 -19 518 -42 60 -59 74
-147 119 -71 35 -80 37 -185 40 -86 2 -122 -2 -161 -15z m199 -164 c95 -24
140 -104 141 -249 0 -111 -13 -157 -62 -211 -95 -105 -272 -56 -314 88 -22 74
-17 198 10 259 45 103 118 140 225 113z"/>
<path d="M12107 2134 c-15 -14 -29 -40 -32 -58 -3 -17 -5 -188 -3 -379 l3
-349 33 -29 c38 -34 88 -39 132 -12 48 28 53 51 61 293 4 124 12 242 19 264 6
21 25 52 42 68 29 28 35 30 87 25 31 -3 73 -10 93 -15 108 -28 165 105 74 172
-96 72 -250 59 -300 -25 -17 -29 -36 -31 -36 -4 0 7 -12 27 -26 44 -22 27 -32
31 -74 31 -38 0 -53 -5 -73 -26z"/>
<path d="M2506 1800 c-29 -26 -36 -39 -36 -69 0 -46 23 -79 66 -97 41 -17 289
-19 347 -3 76 21 98 112 42 168 -25 26 -28 26 -204 29 l-179 3 -36 -31z"/>
</g>
</svg>
