<?xml version="1.0" standalone="no"?>
<!DOCTYPE svg PUBLIC "-//W3C//DTD SVG 20010904//EN"
 "http://www.w3.org/TR/2001/REC-SVG-20010904/DTD/svg10.dtd">
<svg version="1.0" xmlns="http://www.w3.org/2000/svg"
 width="300.000000pt" height="74.000000pt" viewBox="0 0 300.000000 74.000000"
 preserveAspectRatio="xMidYMid meet">
<metadata>
Created by potrace 1.10, written by Peter Selinger 2001-2011
</metadata>
<g transform="translate(0.000000,74.000000) scale(0.100000,-0.100000)"
fill="#000000" stroke="none">
<path d="M286 733 c-3 -3 -6 -14 -6 -24 0 -31 -77 -42 -100 -14 -18 21 -38 19
-77 -10 l-33 -26 20 -27 c20 -26 20 -30 5 -65 -13 -32 -19 -37 -50 -37 -18 0
-37 -5 -41 -11 -12 -20 11 -30 51 -21 52 10 80 49 80 112 0 27 3 51 6 54 7 8
79 -21 79 -32 0 -4 -6 -16 -14 -27 -43 -62 -44 -173 -2 -222 l22 -26 22 28 22
27 20 -23 c15 -18 19 -33 15 -57 -5 -28 -1 -38 28 -67 19 -19 45 -35 57 -35
17 0 21 -5 17 -19 -6 -26 22 -50 67 -58 42 -7 41 -6 20 -39 -9 -13 -18 -35
-19 -47 -1 -12 -3 -26 -4 -30 0 -5 -13 -7 -28 -5 -20 2 -33 13 -45 36 -23 47
-43 67 -88 87 -36 16 -45 17 -81 5 -41 -14 -42 -14 -70 18 -28 32 -29 33 -14
70 15 36 14 42 -3 83 -11 24 -28 51 -38 61 -29 24 -92 49 -100 37 -9 -16 15
-38 50 -45 26 -5 35 -14 53 -56 l23 -50 -20 -28 c-11 -16 -20 -33 -20 -38 0
-13 90 -112 102 -112 5 0 22 10 38 22 l29 21 47 -24 c39 -20 49 -31 58 -64
l12 -40 67 -3 67 -3 0 43 c0 39 3 45 35 62 35 19 35 19 58 -2 33 -31 45 -28
69 22 l21 44 -21 27 c-12 15 -22 42 -22 59 l0 31 -18 -35 c-32 -60 -132 -96
-197 -71 -17 7 -15 9 16 20 20 6 45 22 57 34 22 23 46 77 38 84 -3 3 -23 2
-45 -2 -27 -4 -42 -13 -46 -26 -8 -26 -42 -42 -71 -35 -25 7 -61 52 -51 63 4
3 51 16 104 28 92 21 98 23 95 46 -8 74 -77 139 -144 139 -82 0 -141 -50 -154
-129 -4 -23 -8 -40 -11 -38 -13 13 -22 125 -12 159 22 83 106 138 186 123 l34
-6 -20 20 c-12 12 -21 26 -21 31 0 16 -91 45 -104 33z m136 -283 c17 -17 28
-33 25 -36 -11 -12 -123 -32 -131 -24 -14 14 9 64 35 77 34 18 37 17 71 -17z
m218 -278 c0 -25 -7 -31 -31 -25 -21 6 -26 29 -6 36 25 10 37 7 37 -11z"/>
<path d="M436 615 c10 -8 24 -15 29 -15 18 0 94 -79 125 -128 16 -26 30 -40
30 -31 0 52 -132 189 -184 189 -20 0 -20 0 0 -15z"/>
<path d="M325 600 c-39 -8 -69 -28 -85 -54 -9 -15 -3 -12 19 8 24 23 42 30 84
34 81 6 155 -37 208 -123 12 -18 19 -24 19 -14 0 21 -75 106 -110 124 -41 21
-101 32 -135 25z"/>
<path d="M1127 544 c-4 -4 -7 -18 -7 -32 0 -14 -8 -31 -17 -38 -17 -13 -17
-15 0 -28 13 -10 17 -28 17 -73 0 -68 13 -86 57 -81 38 4 45 38 9 38 -25 0
-26 3 -26 54 0 46 3 56 20 61 25 8 26 25 1 32 -13 3 -21 15 -23 36 -3 30 -17
44 -31 31z"/>
<path d="M2053 543 c-7 -3 -13 -16 -13 -30 0 -14 -8 -32 -17 -39 -17 -13 -17
-15 0 -25 13 -8 17 -24 17 -72 0 -36 5 -68 12 -75 23 -23 99 -8 84 17 -4 6
-16 11 -27 11 -16 0 -19 7 -19 39 0 22 -3 46 -6 54 -3 9 3 16 15 20 26 6 28
37 2 37 -14 0 -17 6 -14 23 5 25 -14 47 -34 40z"/>
<path d="M2366 543 c-3 -4 -6 -17 -6 -31 0 -14 -8 -31 -17 -38 -17 -13 -17
-15 0 -28 13 -10 17 -28 17 -79 0 -62 2 -67 24 -73 35 -8 60 -1 64 19 3 12 -3
17 -22 17 -25 0 -26 3 -26 54 0 46 3 56 20 61 11 3 20 11 20 17 0 5 -9 12 -20
15 -14 4 -20 14 -20 33 0 26 -21 46 -34 33z"/>
<path d="M700 460 c-37 -37 -13 -66 25 -30 26 25 68 24 73 -1 2 -13 -10 -20
-47 -29 -59 -14 -74 -28 -69 -67 4 -36 45 -52 90 -35 23 8 35 9 45 1 7 -6 19
-9 26 -6 21 8 5 156 -18 174 -29 20 -101 17 -125 -7z m100 -100 c0 -23 -40
-46 -64 -37 -23 9 -19 36 7 47 38 15 57 12 57 -10z"/>
<path d="M897 474 c-10 -11 -8 -119 3 -148 12 -34 55 -44 92 -23 25 14 28 14
28 1 0 -9 7 -14 18 -12 15 3 17 16 17 93 0 83 -1 90 -20 90 -18 0 -21 -8 -25
-70 -5 -70 -5 -70 -35 -70 -30 0 -30 0 -35 70 -4 52 -9 71 -20 73 -9 1 -19 0
-23 -4z"/>
<path d="M1248 450 c-27 -28 -30 -36 -25 -73 14 -100 135 -121 173 -30 43 101
-71 180 -148 103z m96 -16 c24 -24 20 -80 -6 -98 -28 -20 -33 -20 -52 0 -32
32 -11 114 29 114 7 0 21 -7 29 -16z"/>
<path d="M1444 467 c-2 -7 -3 -65 -2 -128 3 -106 4 -114 23 -114 17 0 20 7 20
48 0 50 5 56 25 32 18 -22 55 -18 86 8 23 20 27 32 27 70 0 77 -55 118 -116
86 -16 -9 -22 -9 -25 0 -5 15 -31 14 -38 -2z m118 -34 c20 -18 24 -73 6 -91
-15 -15 -51 -15 -66 0 -17 17 -15 68 5 90 20 22 31 23 55 1z"/>
<path d="M1680 460 c-37 -37 -13 -66 25 -30 26 25 68 24 73 -1 2 -13 -10 -20
-48 -29 -60 -14 -88 -46 -70 -79 14 -27 56 -37 94 -23 20 8 34 8 40 2 6 -6 16
-10 23 -10 21 0 8 161 -14 178 -27 20 -100 15 -123 -8z m100 -100 c0 -23 -40
-46 -64 -37 -23 9 -19 36 7 47 38 15 57 12 57 -10z"/>
<path d="M1877 473 c-10 -10 -8 -156 2 -172 5 -8 16 -11 25 -8 12 5 16 20 16
64 0 71 9 86 46 81 23 -2 29 1 29 17 0 24 -39 33 -62 13 -13 -10 -17 -10 -20
0 -5 13 -25 16 -36 5z"/>
<path d="M2172 464 c-16 -11 -22 -24 -20 -42 2 -22 12 -30 56 -46 38 -13 52
-23 50 -35 -5 -25 -55 -26 -70 -2 -16 26 -38 27 -38 2 0 -61 138 -68 154 -8 8
33 -11 56 -62 70 -52 16 -63 40 -19 45 18 2 29 -2 33 -12 7 -19 30 -21 40 -4
11 17 -34 48 -70 48 -17 0 -42 -7 -54 -16z"/>
<path d="M2489 451 c-77 -77 17 -202 113 -150 11 6 26 26 34 44 42 101 -71
182 -147 106z m93 -18 c26 -23 24 -78 -4 -97 -28 -20 -33 -20 -52 0 -31 31
-12 114 26 114 6 0 20 -7 30 -17z"/>
<path d="M2686 464 c-9 -24 -7 -147 3 -163 5 -8 16 -11 25 -8 12 5 16 21 16
65 0 65 13 86 52 80 17 -2 23 2 23 17 0 23 -38 33 -60 15 -9 -7 -15 -8 -20 0
-9 15 -32 12 -39 -6z"/>
<path d="M2846 449 c-36 -43 -35 -91 3 -130 21 -20 39 -29 63 -29 38 0 78 24
78 46 0 18 -24 18 -40 -1 -25 -30 -80 -12 -80 26 0 13 8 15 48 12 31 -3 53 0
66 10 18 13 18 18 6 46 -15 38 -37 51 -83 51 -27 0 -41 -7 -61 -31z m92 -11
c24 -24 13 -38 -28 -38 -26 0 -40 5 -40 13 0 18 21 37 40 37 9 0 21 -5 28 -12z"/>
<path d="M557 403 c-21 -20 -4 -33 41 -33 54 0 67 7 51 27 -12 13 -80 18 -92
6z"/>
</g>
</svg>
